<svg height="512" viewBox="0 0 64 64" width="512" xmlns="http://www.w3.org/2000/svg"><g id="flat"><path d="m3 9h16v10h-16z" fill="#f98c96"/><path d="m12 16h-6v-4h2v2h4z" fill="#db527d"/><path d="m18 6h2v16h-2z" fill="#66342e"/><path d="m19 53a1 1 0 0 1 -1-1v-25a1 1 0 0 1 2 0v25a1 1 0 0 1 -1 1z" fill="#66342e"/><path d="m42 45 5-4v8h-5z" fill="#f9bb4b"/><path d="m38 45-5-4v8h5z" fill="#f9bb4b"/><path d="m33 23v18l5 4h4l5-4v-18z" fill="#4f83d1"/><path d="m29 30-8-2v-5h8z" fill="#4da6ea"/><path d="m14 25.5a2.5 2.5 0 0 1 2.5-2.5h.5a2 2 0 0 1 2-2 2 2 0 0 1 2 2v5h-4.5a2.5 2.5 0 0 1 -2.5-2.5z" fill="#e97424"/><path d="m58.5 11a2.5 2.5 0 0 0 -2.5 2.5v.5a2 2 0 0 0 -2 2 2 2 0 0 0 2 2h5v-4.5a2.5 2.5 0 0 0 -2.5-2.5z" fill="#e97424"/><path d="m56 18v5h-5v7l10-4v-8z" fill="#4da6ea"/><path d="m47 23h4v7h-4z" fill="#f9bb4b"/><path d="m29 23h4v7h-4z" fill="#f9bb4b" transform="matrix(-1 0 0 -1 62 53)"/><g fill="#f4f4e6"><path d="m42 26h2v2h-2z"/><path d="m36 26h4v2h-4z"/><path d="m36 30h2v2h-2z"/><path d="m40 30h4v2h-4z"/></g><path d="m50 13a10 10 0 1 0 -15 8.651v1.349h10v-1.349a9.988 9.988 0 0 0 5-8.651z" fill="#4da6ea"/><path d="m33 35h14v6l-5 4h-4l-5-4z" fill="#4da6ea"/><path d="m38 35h4v4h-4z" fill="#e97424"/><path d="m33 35h5v4h-5z" fill="#f9bb4b"/><path d="m42 35h5v4h-5z" fill="#f9bb4b"/><path d="m42 57h9a0 0 0 0 1 0 0v4a0 0 0 0 1 0 0h-7a2 2 0 0 1 -2-2v-2a0 0 0 0 1 0 0z" fill="#e97424" transform="matrix(-1 0 0 -1 93 118)"/><path d="m42 49h7v8h-7z" fill="#4da6ea" transform="matrix(-1 0 0 -1 91 106)"/><path d="m45 52h3v2h-3z" fill="#f4f4e6"/><path d="m31 57h7a0 0 0 0 1 0 0v4a0 0 0 0 1 0 0h-9a0 0 0 0 1 0 0v-2a2 2 0 0 1 2-2z" fill="#e97424"/><path d="m31 49h7v8h-7z" fill="#4da6ea"/><path d="m32 52h3v2h-3z" fill="#f4f4e6"/><path d="m46 14c0 2.76-2.69 5-6 5a6.613 6.613 0 0 1 -4.17-1.41 5 5 0 0 1 -1.3-1.54 4.286 4.286 0 0 1 -.53-2.05c0-2.76 2.69-5 6-5a6.613 6.613 0 0 1 4.17 1.41 5 5 0 0 1 1.3 1.54 4.286 4.286 0 0 1 .53 2.05z" fill="#fcf05a"/><path d="m39.71 13.71-3.88 3.88a5 5 0 0 1 -1.3-1.54l3.76-3.76z" fill="#f9bb4b"/><path d="m45.47 11.95-3.76 3.76-1.42-1.42 3.88-3.88a5 5 0 0 1 1.3 1.54z" fill="#f9bb4b"/><circle cx="19" cy="5" fill="#e97424" r="2"/></g></svg>