<svg height="512" viewBox="0 0 64 64" width="512" xmlns="http://www.w3.org/2000/svg"><g id="flat"><path d="m12 23a1 1 0 0 1 -1-1v-12a1 1 0 0 1 2 0v12a1 1 0 0 1 -1 1z" fill="#f98c96"/><circle cx="12" cy="8" fill="#98ecb7" r="3"/><path d="m46 23a1 1 0 0 1 -1-1v-12a1 1 0 0 1 2 0v12a1 1 0 0 1 -1 1z" fill="#f98c96"/><path d="m61 47h-52l-2-10v-6l2-10h39l13 10z" fill="#4da6ea"/><path d="m5 31h2a0 0 0 0 1 0 0v6a0 0 0 0 1 0 0h-2a2 2 0 0 1 -2-2v-2a2 2 0 0 1 2-2z" fill="#e97424"/><path d="m34 37h-3v-6h3l2 3z" fill="#e97424"/><path d="m18 25h10v6h-10z" fill="#fcf05a"/><path d="m25.293 43.707-1.707-1.707h-9.172l-1.707 1.707-1.414-1.414 2-2a1 1 0 0 1 .707-.293h10a1 1 0 0 1 .707.293l2 2z" fill="#3683b2"/><circle cx="19" cy="49" fill="#394d5c" r="6"/><circle cx="19" cy="49" fill="#fcf05a" r="2"/><path d="m57.293 43.707-1.707-1.707h-21.172l-1.707 1.707-1.414-1.414 2-2a1 1 0 0 1 .707-.293h22a1 1 0 0 1 .707.293l2 2z" fill="#3683b2"/><circle cx="39" cy="49" fill="#394d5c" r="6"/><circle cx="39" cy="49" fill="#fcf05a" r="2"/><circle cx="51" cy="49" fill="#394d5c" r="6"/><circle cx="51" cy="49" fill="#fcf05a" r="2"/><path d="m38 25h9l3 3-10 4z" fill="#f4f4e6"/><path d="m41 35 11-4 1 2v4h-12z" fill="#f4f4e6"/><path d="m61 38-4-2v-3l4-2z" fill="#fcf05a"/><path d="m11.986 31.165-1.986.367 1.014-6.7a1 1 0 0 1 .986-.832h3v2h-2.153z" fill="#3683b2"/><path d="m31 24h2v2h-2z" fill="#f4f4e6"/><path d="m33 26h2v2h-2z" fill="#f4f4e6"/><ellipse cx="43" cy="15" fill="#98ecb7" rx="10" ry="2"/><path d="m7 31h24v6h-24z" fill="#f9bb4b"/></g></svg>